<svg xmlns="http://www.w3.org/2000/svg" viewBox="0 0 28.33 106.67"><defs><style>.cls-1{fill:#1e89cc;}</style></defs><title>queue</title><g id="Calque_2" data-name="Calque 2"><g id="Calque_1-2" data-name="Calque 1"><path class="cls-1" d="M-16.33,25.33h51a10,10,0,0,1,10,10v8.33a10,10,0,0,1-10,10h-51a0,0,0,0,1,0,0V25.33A0,0,0,0,1-16.33,25.33Z" transform="translate(-25.33 53.67) rotate(-90)"/><rect class="cls-1" x="-0.17" y="73.25" width="28.67" height="10.5" transform="translate(-64.33 92.67) rotate(-90)"/><rect class="cls-1" x="-0.17" y="9.08" width="28.67" height="10.5" transform="translate(-0.17 28.5) rotate(-90)"/><path class="cls-1" d="M14.17,96.17h5.25a0,0,0,0,1,0,0v10.5a0,0,0,0,1,0,0H14.17a5.25,5.25,0,0,1-5.25-5.25v0A5.25,5.25,0,0,1,14.17,96.17Z" transform="translate(-87.25 115.58) rotate(-90)"/></g></g></svg>