<svg xmlns="http://www.w3.org/2000/svg" viewBox="0 0 28.33 106.67"><defs><style>.cls-1{fill:#1e89cc;}</style></defs><title>tete</title><g id="Calque_2" data-name="Calque 2"><g id="Calque_1-2" data-name="Calque 1"><path class="cls-1" d="M-16.33,53h51a10,10,0,0,1,10,10v8.33a10,10,0,0,1-10,10h-51a0,0,0,0,1,0,0V53A0,0,0,0,1-16.33,53Z" transform="translate(81.33 53) rotate(90)"/><rect class="cls-1" x="-0.17" y="22.92" width="28.67" height="10.5" transform="translate(42.33 14) rotate(90)"/><rect class="cls-1" x="-0.17" y="87.08" width="28.67" height="10.5" transform="translate(106.5 78.17) rotate(90)"/><path class="cls-1" d="M14.17,0h5.25a0,0,0,0,1,0,0V10.5a0,0,0,0,1,0,0H14.17A5.25,5.25,0,0,1,8.92,5.25v0A5.25,5.25,0,0,1,14.17,0Z" transform="translate(19.42 -8.92) rotate(90)"/></g></g></svg>